<?xml version="1.0" encoding="UTF-8"?>
<svg xmlns="http://www.w3.org/2000/svg" xmlns:xlink="http://www.w3.org/1999/xlink" viewBox="0 0 96 96" width="96px" height="96px">
<g id="surface149160443">
<path style=" stroke:none;fill-rule:nonzero;fill:rgb(29.411766%,13.333334%,76.47059%);fill-opacity:1;" d="M 3 13 L 3 83 C 3 88.523438 7.476562 93 13 93 L 83 93 C 88.523438 93 93 88.523438 93 83 L 93 13 C 93 7.476562 88.523438 3 83 3 L 13 3 C 7.476562 3 3 7.476562 3 13 Z M 56.328125 50.253906 L 45.738281 50.253906 L 45.738281 83 L 37.203125 83 L 37.203125 50.253906 L 26.835938 50.253906 L 26.835938 43 L 56.328125 43 Z M 57.988281 81.128906 L 57.988281 72.375 C 57.988281 72.375 62.769531 75.980469 68.511719 75.980469 C 74.25 75.980469 74.023438 72.230469 74.023438 71.714844 C 74.023438 66.269531 57.769531 66.269531 57.769531 54.210938 C 57.769531 37.804688 81.453125 44.28125 81.453125 44.28125 L 81.160156 52.074219 C 81.160156 52.074219 77.191406 49.425781 72.699219 49.425781 C 68.214844 49.425781 66.59375 51.558594 66.59375 53.839844 C 66.59375 59.726562 83 59.136719 83 70.980469 C 83 89.21875 57.988281 81.128906 57.988281 81.128906 Z M 57.988281 81.128906 "/>
</g>
</svg>
