<?xml version="1.0" encoding="UTF-8"?>
<svg xmlns="http://www.w3.org/2000/svg" xmlns:xlink="http://www.w3.org/1999/xlink" viewBox="0 0 50 50" width="50px" height="50px">
<g id="surface148837228">
<path style=" stroke:none;fill-rule:nonzero;fill:rgb(88.235295%,62.7451%,3.529412%);fill-opacity:1;" d="M 46.269531 0.640625 L 3.734375 0.640625 C 2.027344 0.640625 0.640625 2.027344 0.640625 3.734375 L 0.640625 46.265625 C 0.640625 47.972656 2.027344 49.359375 3.734375 49.359375 L 46.265625 49.359375 C 47.972656 49.359375 49.359375 47.972656 49.359375 46.269531 L 49.359375 3.734375 C 49.359375 2.027344 47.972656 0.640625 46.269531 0.640625 Z M 27.320312 37.972656 C 27.320312 42.609375 24.601562 44.71875 20.632812 44.71875 C 17.042969 44.71875 14.457031 42.3125 13.398438 40.078125 L 17.046875 37.875 C 17.75 39.121094 18.820312 40.078125 20.359375 40.078125 C 21.832031 40.078125 22.679688 39.503906 22.679688 37.265625 L 22.679688 22.679688 L 27.320312 22.679688 Z M 37.382812 44.71875 C 33.273438 44.71875 30.941406 42.648438 29.640625 40.078125 L 33.121094 37.761719 C 34.066406 39.308594 35.101562 40.792969 37.285156 40.792969 C 39.121094 40.792969 40.078125 39.875 40.078125 38.605469 C 40.078125 37.09375 39.082031 36.554688 37.066406 35.671875 L 35.960938 35.195312 C 32.765625 33.835938 30.640625 32.132812 30.640625 28.523438 C 30.640625 25.207031 33.175781 22.679688 37.125 22.679688 C 39.941406 22.679688 41.960938 23.660156 43.417969 26.222656 L 39.976562 28.4375 C 39.214844 27.074219 38.398438 26.539062 37.125 26.539062 C 35.828125 26.539062 35.007812 27.367188 35.007812 28.4375 C 35.007812 29.765625 35.828125 30.300781 37.726562 31.125 L 38.832031 31.601562 C 42.597656 33.210938 44.71875 34.855469 44.71875 38.554688 C 44.71875 42.535156 41.589844 44.71875 37.382812 44.71875 Z M 37.382812 44.71875 "/>
</g>
</svg>
